<?xml version="1.0" encoding="UTF-8" standalone="no"?>
<!DOCTYPE svg PUBLIC "-//W3C//DTD SVG 1.1//EN" "http://www.w3.org/Graphics/SVG/1.1/DTD/svg11.dtd">
<svg width="100%" height="100%" viewBox="0 0 1250 1250" version="1.1" xmlns="http://www.w3.org/2000/svg" xmlns:xlink="http://www.w3.org/1999/xlink" xml:space="preserve" xmlns:serif="http://www.serif.com/" style="fill-rule:evenodd;clip-rule:evenodd;stroke-linejoin:round;stroke-miterlimit:2;">
    <g transform="matrix(1,0,0,1,-9709.02,-579.655)">
        <g id="画板3" transform="matrix(0.392315,0,0,0.345904,5958.33,579.655)">
            <rect x="9560.4" y="0" width="3186.21" height="3613.72" style="fill:none;"/>
            <g transform="matrix(2.42975,0,0,2.42725,-14857.7,-3801.89)">
                <g transform="matrix(0,-4.9627,-4.37111,0,10714.7,2160.33)">
                    <ellipse cx="-14.094" cy="0" rx="14.093" ry="14.094" style="fill:none;stroke:black;stroke-width:4px;stroke-linejoin:miter;stroke-miterlimit:10;"/>
                </g>
                <g transform="matrix(-0.66215,-2.33214,-2.05413,0.751766,10704.8,2195.59)">
                    <path d="M-14.094,-14.094C-6.315,-14.093 -0.001,-7.778 -0.001,0C-0.001,7.778 -6.315,14.094 -14.094,14.094C-22.268,14.094 -17.478,7.457 -17.478,-0.234C-17.478,-7.204 -22.307,-14.094 -14.094,-14.094Z" style="fill:none;stroke:black;stroke-width:8.1px;stroke-linejoin:miter;stroke-miterlimit:10;"/>
                </g>
                <g transform="matrix(0.899467,0,0,1.0212,9986.22,1505.42)">
                    <path d="M683.566,957.393C640.598,979.378 593.275,998.391 553.749,992.072C519.098,986.533 626.155,961.487 672.525,869.451C679.625,855.36 620.807,870.421 556.114,843.982C492.639,818.041 395.786,840.461 408.169,823.855C428.877,796.084 528.119,762.693 575.964,762.204C655.832,761.388 735.614,813.548 783.535,830.504C813.272,841.025 734.476,931.344 683.566,957.393Z" style="fill:none;stroke:black;stroke-width:19.44px;stroke-linejoin:miter;stroke-miterlimit:10;"/>
                </g>
                <g transform="matrix(1.04907,0,0,1.19105,9901.98,1335.32)">
                    <path d="M584.228,420.155C679.027,365.866 780.689,313.493 774.887,345.733C766.095,394.595 676.907,441.382 675.918,470.132C674.724,504.865 779.487,422.38 779.129,460.384C778.828,492.484 608.534,604.225 608.534,604.225C608.534,604.225 513.961,658.107 519.875,621.442C524.279,594.13 623.825,535.114 625.645,490.125C627.294,449.38 490.705,563.932 499.119,517.877C507.874,469.945 558.96,426.364 581.597,358.656C615.458,257.378 339.843,436.673 260.306,675.577L258.576,680.237C201.6,840.206 213.518,1024.7 344.724,1158.02C468.192,1283.48 714.953,1351.04 844.795,1278.09" style="fill:none;stroke:black;stroke-width:16.67px;stroke-linecap:round;stroke-linejoin:miter;stroke-miterlimit:10;"/>
                </g>
                <g transform="matrix(1.04907,0,0,1.19105,9891.49,1373.44)">
                    <path d="M880.221,1023.56C857.143,957.156 779.686,924.063 715.234,955.515C640.663,991.905 646.465,1058.23 656.082,1071.28C686.587,1112.68 690.76,1027.92 733.864,1060.68C800.621,1111.42 789.154,1006.69 855.896,1063C956.816,1148.14 927.969,1025.55 989.062,1070.17C1113.41,1160.99 1028.98,997.123 1104.45,1023.4C1212.22,1060.92 1124.98,949.305 1182.65,960.648C1269.9,977.811 1239.1,845.068 1103.92,716.52C1048.58,663.887 987.513,643.777 985.99,639.591C985.99,639.591 983.649,633.163 987.767,630.017C1037.37,592.122 1088.93,508.062 1055.88,526.665C1014.11,550.184 922.67,575.965 936.215,561.488C971.132,524.166 948.87,442.92 935.925,470.521C922.951,498.18 895.395,546.15 858.62,545.813C721.322,544.554 658.698,586.645 616.309,646.908C587.215,688.27 592.624,730.224 571.594,737.337C552.534,743.785 549.03,719.848 536.499,697.291C522.315,671.758 497.9,731.705 487.685,733.003C461.05,736.387 464.207,708.635 457.56,685.294C449.148,655.758 396.915,727.739 383.37,726.356C348.707,722.818 385.466,679.924 384.039,658.168C381.809,624.18 308.818,696.717 291.471,789.607C245.775,1034.3 508.408,1163.65 598.453,1190.52C623.248,1197.92 661.855,1205.43 681.576,1179.98C706.937,1147.25 720.157,1120.42 754.428,1160.79C843.434,1265.64 816.647,1104.14 891.698,1172.01C1010.35,1279.31 964.793,1122.82 1013.93,1171.72C1115.84,1273.14 1052.85,1126.49 1136.08,1181.44C1237.86,1248.64 1163.17,1072.65 1236.1,1120.8C1367.14,1207.32 1305.53,1032.19 1263.74,990.243" style="fill:none;stroke:black;stroke-width:16.67px;stroke-linecap:round;stroke-linejoin:miter;stroke-miterlimit:10;"/>
                </g>
            </g>
        </g>
    </g>
</svg>
